<svg xmlns="http://www.w3.org/2000/svg" width="166" height="37" viewBox="0 0 166 37" fill="none"><g clip-path="url(#clip0_247_37)"><path d="M7.785 25.7217C7.7512 25.8715 7.73458 26.0247 7.73545 26.1782C7.72479 26.8491 7.89578 27.5108 8.23092 28.0954C8.55792 28.6527 8.9986 29.1376 9.52532 29.5197C10.0743 29.9203 10.6906 30.2232 11.3462 30.4144C12.0282 30.6204 12.7383 30.7231 13.4519 30.7187C14.65 30.7426 15.8379 30.4992 16.9264 30.0066C17.9416 29.5272 18.8589 28.8692 19.6329 28.065L24.8724 32.1003C23.3318 33.7539 21.4246 35.0368 19.2984 35.8496C17.1903 36.6278 14.9544 37.0178 12.7025 37C11.003 37.0139 9.31189 36.7633 7.6921 36.2574C6.21411 35.8001 4.845 35.0549 3.66643 34.0663C2.5092 33.076 1.58739 31.848 0.966135 30.4691C0.285664 28.9216 -0.0500921 27.249 -0.0186031 25.5634C-0.0354509 23.4796 0.359991 21.4124 1.14574 19.4769C1.88696 17.6472 2.98046 15.9753 4.36627 14.5529C5.76475 13.1328 7.44189 12.0064 9.29617 11.2418C11.2834 10.4203 13.4204 10.0061 15.5762 10.0245C17.1567 10.0049 18.7292 10.2477 20.2274 10.7427C21.5625 11.1792 22.7917 11.8816 23.8381 12.8061C24.8614 13.7339 25.6593 14.8758 26.173 16.1476C26.7536 17.611 27.0355 19.1724 27.0029 20.7429C26.9897 21.5207 26.9298 22.2971 26.8233 23.0679C26.7108 23.9532 26.5453 24.8312 26.3278 25.6973L7.785 25.7217ZM19.5523 20.7185C19.5892 20.5505 19.6079 20.3792 19.6081 20.2073V19.696C19.6203 19.1681 19.5159 18.6439 19.302 18.1595C19.0882 17.6751 18.77 17.242 18.3694 16.8901C17.3919 16.0855 16.1364 15.6822 14.864 15.7641C14.0003 15.7513 13.1436 15.9172 12.3495 16.251C11.6399 16.5569 10.9821 16.9674 10.3986 17.4683C9.86545 17.9216 9.40963 18.4559 9.04844 19.0508C8.72428 19.5749 8.48013 20.143 8.32381 20.7368L19.5523 20.7185Z" fill="#33475B"/><path d="M43.9045 36.2331L39.854 28.4241L32.7936 36.2331H22.7666L35.8593 22.9097L28.9475 10.8158H38.0394L41.6191 17.7544L47.8125 10.8158H57.5298L45.6324 23.0679L53.114 36.2331H43.9045Z" fill="#33475B"/><path d="M75.5649 36.2331L80.0861 10.8158H88.4471L83.8207 36.2331H75.5649Z" fill="#33475B"/><path d="M80.4143 8.49074L82.0184 -0.0303955C83.0372 -0.0286901 84.0432 0.193356 84.9649 0.619994C85.8866 1.04663 86.7014 1.66739 87.3516 2.43824C88.0018 3.2091 88.4715 4.11114 88.7271 5.08035C88.9828 6.04957 89.0183 7.06221 88.8311 8.04642L88.7567 8.4603L80.4143 8.49074Z" fill="#33475B"/><path d="M89.5309 16.9388L90.6767 10.8157H94.7643L96.0029 4.07797H97.1487C98.002 4.07781 98.845 4.26122 99.6186 4.61534C100.392 4.96945 101.077 5.48569 101.626 6.12779C102.175 6.76989 102.574 7.52228 102.796 8.33215C103.017 9.14202 103.056 9.98972 102.908 10.8157H108.39L107.25 16.9388H101.899L100.041 26.9329C100.01 27.1702 99.979 27.4198 99.9667 27.6754C99.9543 27.9311 99.9357 28.1441 99.9357 28.3145C99.8948 28.6419 99.9406 28.9742 100.069 29.2791C100.197 29.5841 100.403 29.8514 100.667 30.0553C101.266 30.394 101.952 30.5547 102.642 30.5178C103.057 30.5182 103.472 30.4836 103.881 30.4144C104.277 30.3474 104.63 30.2805 104.946 30.2135L104.166 36.0809C103.505 36.3333 102.817 36.513 102.116 36.6165C101.284 36.7648 100.44 36.8422 99.5951 36.8478C97.1177 36.8478 95.1359 36.3487 93.699 35.3627C92.2622 34.3767 91.5437 32.8064 91.5437 30.6518C91.5461 30.182 91.573 29.7128 91.6242 29.2457C91.6727 28.7389 91.7492 28.235 91.8534 27.7363L93.8291 16.9388H89.5309Z" fill="#33475B"/><path d="M114.379 25.7217C114.345 25.8715 114.328 26.0247 114.329 26.1782C114.318 26.8491 114.489 27.5108 114.824 28.0954C115.151 28.6527 115.592 29.1376 116.119 29.5197C116.668 29.9204 117.284 30.2232 117.94 30.4144C118.622 30.6205 119.332 30.7231 120.045 30.7187C121.243 30.7427 122.431 30.4992 123.52 30.0066C124.533 29.5271 125.448 28.869 126.22 28.065L131.466 32.1003C129.925 33.7539 128.018 35.0368 125.892 35.8496C123.784 36.6278 121.548 37.0178 119.296 37C117.596 37.0139 115.905 36.7633 114.286 36.2574C112.808 35.8001 111.438 35.0549 110.26 34.0663C109.103 33.076 108.181 31.848 107.56 30.4692C106.879 28.9216 106.543 27.249 106.575 25.5634C106.558 23.4796 106.954 21.4124 107.739 19.4769C108.48 17.6472 109.574 15.9754 110.96 14.5529C112.355 13.1414 114.025 12.0214 115.871 11.2601C117.858 10.4386 119.995 10.0244 122.151 10.0428C123.732 10.0236 125.304 10.2664 126.802 10.761C128.137 11.1974 129.367 11.8999 130.413 12.8243C131.436 13.7521 132.234 14.8941 132.748 16.1658C133.326 17.6301 133.607 19.1909 133.578 20.7612C133.565 21.539 133.505 22.3153 133.398 23.0862C133.286 23.9714 133.12 24.8494 132.903 25.7156L114.379 25.7217ZM126.146 20.7185C126.181 20.5503 126.197 20.3789 126.195 20.2073V19.696C126.208 19.1681 126.103 18.6439 125.889 18.1595C125.676 17.6751 125.357 17.242 124.957 16.8901C123.979 16.0855 122.724 15.6822 121.451 15.7641C120.588 15.7513 119.731 15.9172 118.937 16.251C118.226 16.5554 117.568 16.966 116.986 17.4683C116.453 17.9216 115.997 18.4559 115.636 19.0508C115.312 19.5749 115.067 20.143 114.911 20.7368L126.146 20.7185Z" fill="#33475B"/><path d="M159.032 4.07797C160.05 4.07762 161.056 4.29655 161.978 4.71935C162.9 5.14216 163.717 5.75856 164.37 6.52512C165.024 7.29169 165.499 8.18979 165.761 9.15614C166.023 10.1225 166.067 11.1336 165.888 12.1183L161.516 36.2331H153.88L154.499 32.7638H154.344C153.427 34.0688 152.172 35.1091 150.709 35.7766C149.098 36.5079 147.342 36.874 145.568 36.8478C144.031 36.8697 142.505 36.5925 141.078 36.0322C139.797 35.5226 138.643 34.7459 137.696 33.7559C136.764 32.761 136.049 31.5884 135.597 30.3109C135.094 28.9013 134.847 27.416 134.866 25.9225C134.852 23.8358 135.213 21.7631 135.931 19.7995C136.599 17.968 137.602 16.2723 138.892 14.7963C140.148 13.3733 141.686 12.2176 143.413 11.4001C145.204 10.5575 147.168 10.1305 149.154 10.1523C150.87 10.1057 152.571 10.4735 154.109 11.2236C155.402 11.8605 156.479 12.8548 157.205 14.0842H157.317L159.032 4.07797ZM143.128 24.8513C143.078 26.248 143.559 27.613 144.478 28.6797C145.378 29.7022 146.712 30.2135 148.479 30.2135C149.484 30.2204 150.477 30.0018 151.384 29.5744C152.281 29.1533 153.078 28.552 153.725 27.8093C154.393 27.0429 154.912 26.1619 155.254 25.2104C155.621 24.2112 155.806 23.1562 155.799 22.0941C155.827 21.3894 155.712 20.6864 155.462 20.0252C155.213 19.3641 154.833 18.7579 154.344 18.2413C153.832 17.7315 153.215 17.334 152.535 17.0749C151.855 16.8158 151.127 16.701 150.399 16.7379C149.357 16.7238 148.326 16.9424 147.383 17.377C146.502 17.783 145.724 18.3754 145.104 19.1117C144.461 19.8742 143.967 20.7471 143.648 21.6863C143.296 22.7054 143.12 23.7751 143.128 24.8513Z" fill="#33475B"/><path d="M60.0197 20.4325H51.9993L50.5748 28.3389H58.5952L60.0197 20.4325Z" fill="#F9AC67"/><path d="M67.2719 14.5407C66.0679 15.7178 65.1135 17.1179 64.4639 18.66C63.8143 20.202 63.4826 21.8554 63.4877 23.5244C63.4861 24.7992 62.9701 26.0213 62.0529 26.9227C61.1357 27.8241 59.8921 28.3312 58.595 28.3328L57.1705 36.2453C60.6264 36.2453 65.2962 34.9123 67.7364 32.5142C68.9419 31.3368 69.8978 29.9358 70.5484 28.3927C71.199 26.8495 71.5316 25.1948 71.5267 23.5244C71.5283 22.2497 72.0443 21.0276 72.9616 20.1262C73.8788 19.2248 75.1223 18.7177 76.4194 18.7161L77.8377 10.8036C74.388 10.8158 69.7182 12.1365 67.2719 14.5407Z" fill="#FF7959"/></g><defs><clipPath id="clip0_247_37"><rect width="166" height="37" fill="white"/></clipPath></defs></svg>